<?xml version="1.0" encoding="utf-8"?>
<!-- Generator: Adobe Illustrator 25.4.1, SVG Export Plug-In . SVG Version: 6.00 Build 0)  -->
<svg version="1.1" id="Layer_1" xmlns="http://www.w3.org/2000/svg" xmlns:xlink="http://www.w3.org/1999/xlink" x="0px" y="0px"
	 viewBox="0 0 115 202" style="enable-background:new 0 0 115 202;" xml:space="preserve">
<style type="text/css">
	.st0{fill:#050000;}
	.st1{clip-path:url(#SVGID_00000114045587862307201730000009679646576102057899_);}
	.st2{fill:#FFFFFF;}
	.st3{fill:#231F20;}
</style>
<g>
	<path class="st0" d="M211.42,90.51c-0.49,0-0.98,0.13-1.42,0.37c-0.69,0.38-1.19,1.01-1.4,1.76c-0.21,0.75-0.12,1.55,0.26,2.23
		c5.53,9.95,16.02,16.13,27.39,16.13c11.36,0,21.86-6.18,27.38-16.13c0.38-0.69,0.47-1.48,0.26-2.23c-0.22-0.75-0.71-1.38-1.4-1.76
		c-0.44-0.25-0.92-0.37-1.42-0.37c-1.07,0-2.05,0.58-2.57,1.51c-4.49,8.09-13.02,13.11-22.25,13.11c-9.23,0-17.76-5.02-22.25-13.11
		C213.47,91.09,212.48,90.51,211.42,90.51"/>
	<path class="st0" d="M220.54,60.6c-2.45,0-4.45,2-4.45,4.45c0,2.45,2,4.45,4.45,4.45c2.46,0,4.45-2,4.45-4.45
		C225,62.6,223,60.6,220.54,60.6"/>
	<path class="st0" d="M251.94,60.6c-2.46,0-4.45,2-4.45,4.45c0,2.45,2,4.45,4.45,4.45c2.45,0,4.45-2,4.45-4.45
		C256.39,62.6,254.39,60.6,251.94,60.6"/>
</g>
<g>
	<defs>
		<rect id="SVGID_1_" x="0.14" y="0" width="114.5" height="202"/>
	</defs>
	<clipPath id="SVGID_00000016069284362158442690000000954107886652736702_">
		<use xlink:href="#SVGID_1_"  style="overflow:visible;"/>
	</clipPath>
	<g style="clip-path:url(#SVGID_00000016069284362158442690000000954107886652736702_);">
		<path class="st2" d="M111.65,63.54C111.44,30.05,87.23,2.98,57.4,2.98c-29.84,0-54.05,27.07-54.26,60.56H3.13v135.48h108.54V63.54
			H111.65z"/>
	</g>
	<g style="clip-path:url(#SVGID_00000016069284362158442690000000954107886652736702_);">
		<path class="st3" d="M114.65,202H0.14V60.56h0.09c0.74-15.82,6.62-30.58,16.7-41.84C27.74,6.65,42.11,0,57.4,0
			c15.28,0,29.65,6.65,40.46,18.71c10.08,11.26,15.96,26.03,16.7,41.84h0.09V202z M6.11,196.04h102.58V64.64l-0.01-1.08
			c-0.1-15.47-5.52-29.99-15.26-40.86C83.75,11.9,70.96,5.96,57.4,5.96c-13.57,0-26.36,5.94-36.02,16.73
			C11.64,33.57,6.22,48.08,6.12,63.56l-0.01,1.73V196.04z"/>
	</g>
</g>
<g>
	<path d="M424.29,29.02c3.23,0.27,6.42,0.93,9.58,1.62c19.37,4.2,35.36,13.66,45.64,30.96c10.39,17.48,10.47,35.5,0.94,53.51
		c-0.31,0.58-0.62,1.16-1,1.86c3.59,3.79,7.16,7.56,10.74,11.33c2.43,2.57,4.84,5.15,7.31,7.68c1.18,1.21,1.82,2.5,0.96,4.12
		c-0.83,1.56-2.25,1.68-3.81,1.41c-10.17-1.82-20.36-3.6-30.52-5.46c-1.6-0.29-2.87-0.11-4.29,0.81
		c-27.35,17.88-64.74,16.11-89.81-4.41c-11.87-9.71-19.31-22.09-21.16-37.53c-0.03-0.23-0.01-11.64,0.02-11.94
		c0.97-8.57,3.89-16.45,8.7-23.58c10.69-15.8,25.88-24.79,44.29-28.77c3.16-0.68,6.35-1.36,9.57-1.63
		C415.72,28.66,420.03,28.67,424.29,29.02z M486.62,133.99c0.07-0.15,0.15-0.3,0.22-0.46c-3.56-3.76-7.11-7.55-10.7-11.28
		c-3.31-3.44-3.54-5.43-1.22-9.61c7.7-13.85,8.56-28.12,2.24-42.66c-4.56-10.48-12.13-18.44-21.77-24.43
		c-14.46-8.99-30.27-12.08-47.05-9.89c-16.46,2.15-30.7,8.95-41.65,21.69c-9.32,10.85-13.61,23.43-11.73,37.78
		c1.81,13.82,8.86,24.72,19.58,33.29c22.24,17.78,56.01,19.84,80.05,4.54c4.68-2.98,8.89-3.34,13.92-2.23
		C474.5,132.03,480.58,132.91,486.62,133.99z"/>
</g>
</svg>
